<?xml version="1.0" encoding="utf-8"?>
<!-- Generator: Adobe Illustrator 19.0.0, SVG Export Plug-In . SVG Version: 6.00 Build 0)  -->
<svg version="1.1" xmlns="http://www.w3.org/2000/svg" xmlns:xlink="http://www.w3.org/1999/xlink" x="0px" y="0px"
	 viewBox="0 0 500 500" style="enable-background:new 0 0 500 500;" xml:space="preserve">
<style type="text/css">
	.st0{display:none;}
	.st1{display:inline;fill:url(#XMLID_4_);stroke:url(#XMLID_5_);stroke-miterlimit:10;}
	.st2{display:inline;fill:url(#XMLID_6_);stroke:url(#XMLID_7_);stroke-miterlimit:10;}
	.st3{fill:url(#XMLID_8_);}
	.st4{fill:none;stroke:url(#XMLID_9_);stroke-width:15;stroke-miterlimit:10;}
	.st5{fill:url(#XMLID_10_);stroke:url(#XMLID_11_);stroke-miterlimit:10;}
</style>
<g id="Layer_3" class="st0">
	<linearGradient id="XMLID_4_" gradientUnits="userSpaceOnUse" x1="25" y1="252" x2="472" y2="252">
		<stop  offset="0" style="stop-color:#950952"/>
		<stop  offset="0.3153" style="stop-color:#5F0635"/>
		<stop  offset="0.5665" style="stop-color:#480833"/>
		<stop  offset="0.8621" style="stop-color:#310A31"/>
		<stop  offset="1" style="stop-color:#000000"/>
	</linearGradient>
	<linearGradient id="XMLID_5_" gradientUnits="userSpaceOnUse" x1="24.5" y1="252" x2="472.5" y2="252">
		<stop  offset="0" style="stop-color:#950952"/>
		<stop  offset="0.3153" style="stop-color:#5F0635"/>
		<stop  offset="0.6355" style="stop-color:#480833"/>
		<stop  offset="1" style="stop-color:#310A31"/>
	</linearGradient>
	<circle id="XMLID_1_" class="st1" cx="248.5" cy="252" r="223.5"/>
	<linearGradient id="XMLID_6_" gradientUnits="userSpaceOnUse" x1="51" y1="252" x2="446" y2="252">
		<stop  offset="0" style="stop-color:#950952"/>
		<stop  offset="0.3153" style="stop-color:#5F0635"/>
		<stop  offset="0.5665" style="stop-color:#480833"/>
		<stop  offset="0.8621" style="stop-color:#310A31"/>
		<stop  offset="1" style="stop-color:#000000"/>
	</linearGradient>
	<linearGradient id="XMLID_7_" gradientUnits="userSpaceOnUse" x1="50.5" y1="252" x2="446.5" y2="252">
		<stop  offset="0" style="stop-color:#950952"/>
		<stop  offset="0.3153" style="stop-color:#5F0635"/>
		<stop  offset="0.6355" style="stop-color:#480833"/>
		<stop  offset="1" style="stop-color:#310A31"/>
	</linearGradient>
	<circle id="XMLID_2_" class="st2" cx="248.5" cy="252" r="197.5"/>
</g>
<g id="Layer_4">
	<linearGradient id="XMLID_8_" gradientUnits="userSpaceOnUse" x1="69" y1="251" x2="431" y2="251">
		<stop  offset="0" style="stop-color:#950952"/>
		<stop  offset="0.3153" style="stop-color:#5F0635"/>
		<stop  offset="0.5813" style="stop-color:#480833"/>
		<stop  offset="0.8867" style="stop-color:#310A31"/>
		<stop  offset="1" style="stop-color:#000000"/>
	</linearGradient>
	<path id="XMLID_27_" class="st3" d="M250,70C150,70,69,151,69,251s81,181,181,181s181-81,181-181S350,70,250,70z M250,416.7
		c-91.5,0-165.7-74.2-165.7-165.7S158.5,85.3,250,85.3S415.7,159.5,415.7,251S341.5,416.7,250,416.7z"/>
</g>
<g id="Layer_1">
	<g id="Layer_2">
	</g>
	<linearGradient id="XMLID_9_" gradientUnits="userSpaceOnUse" x1="154" y1="252" x2="342" y2="252">
		<stop  offset="0" style="stop-color:#950952"/>
		<stop  offset="0.3153" style="stop-color:#5F0635"/>
		<stop  offset="0.5665" style="stop-color:#480833"/>
		<stop  offset="1" style="stop-color:#310A31"/>
	</linearGradient>
	<path id="XMLID_14_" class="st4" d="M334.5,197.6c0-2.8-2.3-5.1-5.1-5.1H166.6c-2.8,0-5.1,2.3-5.1,5.1v108.9c0,2.8,2.3,5.1,5.1,5.1
		h162.9c2.8,0,5.1-2.3,5.1-5.1V197.6z"/>
	<linearGradient id="XMLID_10_" gradientUnits="userSpaceOnUse" x1="177.8851" y1="231.9809" x2="320.2965" y2="231.9809">
		<stop  offset="0" style="stop-color:#950952"/>
		<stop  offset="0.3153" style="stop-color:#5F0635"/>
		<stop  offset="0.5665" style="stop-color:#480833"/>
		<stop  offset="0.8621" style="stop-color:#310A31"/>
		<stop  offset="1" style="stop-color:#000000"/>
	</linearGradient>
	<linearGradient id="XMLID_11_" gradientUnits="userSpaceOnUse" x1="177.3851" y1="231.9809" x2="320.7965" y2="231.9809">
		<stop  offset="0" style="stop-color:#950952"/>
		<stop  offset="0.3153" style="stop-color:#5F0635"/>
		<stop  offset="0.6355" style="stop-color:#480833"/>
		<stop  offset="1" style="stop-color:#310A31"/>
	</linearGradient>
	<path id="XMLID_15_" class="st5" d="M318.1,213.8L253,258c-1,0.6-2.1,1-3.2,1c-0.3,0-0.5,0-0.8-0.1c-0.3,0-0.5,0.1-0.8,0.1
		c-1.1,0-2.2-0.3-3.2-1L180,213.8c-2.4-1.6-2.9-4.7-1.1-6.8c1-1.3,2.7-2,4.3-2c1.1,0,2.2,0.3,3.2,1l62.7,42.5l62.7-42.5
		c1-0.7,2.1-1,3.2-1c1.6,0,3.3,0.7,4.3,2C321,209.2,320.5,212.2,318.1,213.8z"/>
</g>
</svg>
