<?xml version="1.0" encoding="utf-8"?>
<!-- Generator: Adobe Illustrator 19.0.0, SVG Export Plug-In . SVG Version: 6.00 Build 0)  -->
<svg version="1.1" xmlns="http://www.w3.org/2000/svg" xmlns:xlink="http://www.w3.org/1999/xlink" x="0px" y="0px"
	 viewBox="0 0 500 500" style="enable-background:new 0 0 500 500;" xml:space="preserve">
<style type="text/css">
	.st0{display:none;}
	.st1{display:inline;}
	.st2{clip-path:url(#XMLID_33_);fill:url(#XMLID_41_);}
	.st3{clip-path:url(#XMLID_42_);fill:url(#XMLID_43_);}
	.st4{clip-path:url(#XMLID_44_);fill:url(#XMLID_45_);}
	.st5{clip-path:url(#XMLID_46_);fill:url(#XMLID_47_);}
	.st6{clip-path:url(#XMLID_48_);fill:url(#XMLID_49_);}
	.st7{clip-path:url(#XMLID_50_);fill:url(#XMLID_51_);}
	.st8{fill:url(#XMLID_52_);}
	.st9{fill:#5F0635;}
</style>
<g id="Layer_4">
</g>
<g id="Layer_6">
</g>
<g id="Layer_7">
</g>
<g id="Layer_5" class="st0">
	<g id="XMLID_14_" class="st1">
		<defs>
			<circle id="XMLID_6_" cx="187" cy="187.7" r="19.3"/>
		</defs>
		<clipPath id="XMLID_33_">
			<use xlink:href="#XMLID_6_"  style="overflow:visible;"/>
		</clipPath>
		<linearGradient id="XMLID_41_" gradientUnits="userSpaceOnUse" x1="135" y1="253.6667" x2="367" y2="253.6667">
			<stop  offset="0" style="stop-color:#950952"/>
			<stop  offset="0.3153" style="stop-color:#5F0635"/>
			<stop  offset="0.5813" style="stop-color:#480833"/>
			<stop  offset="0.8867" style="stop-color:#310A31"/>
			<stop  offset="1" style="stop-color:#000000"/>
		</linearGradient>
		<rect id="XMLID_8_" x="135" y="149" class="st2" width="232" height="209.3"/>
	</g>
	<g id="XMLID_13_" class="st1">
		<defs>
			<rect id="XMLID_7_" x="167.7" y="223.7" width="38.7" height="107.3"/>
		</defs>
		<clipPath id="XMLID_42_">
			<use xlink:href="#XMLID_7_"  style="overflow:visible;"/>
		</clipPath>
		<linearGradient id="XMLID_43_" gradientUnits="userSpaceOnUse" x1="135" y1="253.6667" x2="367" y2="253.6667">
			<stop  offset="0" style="stop-color:#950952"/>
			<stop  offset="0.3153" style="stop-color:#5F0635"/>
			<stop  offset="0.5813" style="stop-color:#480833"/>
			<stop  offset="0.8867" style="stop-color:#310A31"/>
			<stop  offset="1" style="stop-color:#000000"/>
		</linearGradient>
		<rect id="XMLID_10_" x="135" y="149" class="st3" width="232" height="209.3"/>
	</g>
	<g id="XMLID_12_" class="st1">
		<defs>
			<path id="XMLID_9_" d="M228,224v107h31v-61c0,0,0.8-20,19.8-20s19.3,19.5,19.3,19.5V331h33v-69c0,0-2-18.3-8.3-25.7
				c-6.3-7.3-15.3-12.3-29-12.7c-26-2.3-34.7,14.3-34.7,14.3l-1-14.3L228,224z"/>
		</defs>
		<clipPath id="XMLID_44_">
			<use xlink:href="#XMLID_9_"  style="overflow:visible;"/>
		</clipPath>
		<linearGradient id="XMLID_45_" gradientUnits="userSpaceOnUse" x1="135" y1="253.6667" x2="367" y2="253.6667">
			<stop  offset="0" style="stop-color:#950952"/>
			<stop  offset="0.3153" style="stop-color:#5F0635"/>
			<stop  offset="0.5813" style="stop-color:#480833"/>
			<stop  offset="0.8867" style="stop-color:#310A31"/>
			<stop  offset="1" style="stop-color:#000000"/>
		</linearGradient>
		<rect id="XMLID_11_" x="135" y="149" class="st4" width="232" height="209.3"/>
	</g>
</g>
<g id="Layer_10">
</g>
<g id="Layer_11">
</g>
<g id="Layer_12">
</g>
<g id="Layer_8" class="st0">
	<g id="XMLID_19_" class="st1">
		<defs>
			<path id="XMLID_38_" d="M237,250c0,0,11.8-11.1,9.3-23.9c-2.1-15-8-21.1-22.8-25.1c-14.5-0.5-58.5,0-58.5,0v100h62
				c0,0,22.3-7.3,22-25.5S237,250,237,250z M179,216h41.5c0,0,11,1.3,11,13.5S219,243,219,243h-40V216z M224,287h-45v-28h45
				c0,0,10.8,3.3,10.8,14S224,287,224,287z"/>
		</defs>
		<clipPath id="XMLID_46_">
			<use xlink:href="#XMLID_38_"  style="overflow:visible;"/>
		</clipPath>
		<linearGradient id="XMLID_47_" gradientUnits="userSpaceOnUse" x1="144.6667" y1="252" x2="353.3333" y2="252">
			<stop  offset="0" style="stop-color:#950952"/>
			<stop  offset="0.3153" style="stop-color:#5F0635"/>
			<stop  offset="0.5813" style="stop-color:#480833"/>
			<stop  offset="0.8867" style="stop-color:#310A31"/>
			<stop  offset="1" style="stop-color:#000000"/>
		</linearGradient>
		<rect id="XMLID_21_" x="144.7" y="181.3" class="st5" width="208.7" height="141.3"/>
	</g>
</g>
<g id="Layer_9" class="st0">
	<g id="XMLID_20_" class="st1">
		<defs>
			<path id="XMLID_37_" d="M327,243c-4.5-6.8-12.8-14.8-23-16.8s-21.8,1.5-26.5,4.5s-13.3,8.5-17,20.1c-3.8,11.6,0,26.1,1.8,30.1
				s11.3,15.5,22.5,18s21.5,1.5,28.3-2.5s10.8-9.5,10.8-9.5s1-4-2-7s-6.5-2.5-8-1.5s-4.8,4.8-8.3,6.3s-10.8,3.6-16.8,1.1
				s-10.9-5.1-13-8.9s-2.8-7-2.8-7h51c0,0,8.3,0.3,8.8-4.8S331.5,249.8,327,243z M273,256c0,0,3.5-17,22-17s22,17,22,17H273z"/>
		</defs>
		<clipPath id="XMLID_48_">
			<use xlink:href="#XMLID_37_"  style="overflow:visible;"/>
		</clipPath>
		<linearGradient id="XMLID_49_" gradientUnits="userSpaceOnUse" x1="144.6667" y1="252" x2="353.3333" y2="252">
			<stop  offset="0" style="stop-color:#950952"/>
			<stop  offset="0.3153" style="stop-color:#5F0635"/>
			<stop  offset="0.5813" style="stop-color:#480833"/>
			<stop  offset="0.8867" style="stop-color:#310A31"/>
			<stop  offset="1" style="stop-color:#000000"/>
		</linearGradient>
		<rect id="XMLID_18_" x="144.7" y="181.3" class="st6" width="208.7" height="141.3"/>
	</g>
	<g id="XMLID_22_" class="st1">
		<defs>
			<path id="XMLID_2_" d="M266,215h57c0,0,6.3-0.4,6-6.9s-5.8-7.1-5.8-7.1H266c0,0-4.5,2-4.5,7S266,215,266,215z"/>
		</defs>
		<clipPath id="XMLID_50_">
			<use xlink:href="#XMLID_2_"  style="overflow:visible;"/>
		</clipPath>
		<linearGradient id="XMLID_51_" gradientUnits="userSpaceOnUse" x1="145" y1="251" x2="353.6667" y2="251">
			<stop  offset="0" style="stop-color:#950952"/>
			<stop  offset="0.3153" style="stop-color:#5F0635"/>
			<stop  offset="0.5813" style="stop-color:#480833"/>
			<stop  offset="0.8867" style="stop-color:#310A31"/>
			<stop  offset="1" style="stop-color:#000000"/>
		</linearGradient>
		<rect id="XMLID_17_" x="145" y="180.3" class="st7" width="208.7" height="141.3"/>
	</g>
</g>
<g id="Layer_2">
	<linearGradient id="XMLID_52_" gradientUnits="userSpaceOnUse" x1="69" y1="250" x2="431" y2="250">
		<stop  offset="0" style="stop-color:#950952"/>
		<stop  offset="0.3153" style="stop-color:#5F0635"/>
		<stop  offset="0.5813" style="stop-color:#480833"/>
		<stop  offset="0.8867" style="stop-color:#310A31"/>
		<stop  offset="1" style="stop-color:#000000"/>
	</linearGradient>
	<path id="XMLID_27_" class="st8" d="M250,69C150,69,69,150,69,250s81,181,181,181s181-81,181-181S350,69,250,69z M250,415.7
		c-91.5,0-165.7-74.2-165.7-165.7S158.5,84.3,250,84.3S415.7,158.5,415.7,250S341.5,415.7,250,415.7z"/>
	
		<image style="display:none;overflow:visible;" width="512" height="512" id="XMLID_3_" xlink:href="../../media.png"  transform="matrix(0.8828 0 0 0.8828 23 26)">
	</image>
</g>
<g id="Layer_13">
	<path id="XMLID_25_" class="st9" d="M254.7,213.2l-8.2,4.8c-3.3,2-7.6,0.8-9.6-2.5l-21.1-35.9c-2-3.3-0.8-7.6,2.5-9.6l8.2-4.8
		c3.3-2,7.6-0.8,9.6,2.5l21.1,35.9C259.1,206.9,258,211.2,254.7,213.2z"/>
	<path id="XMLID_23_" class="st9" d="M317,322.2l-8.2,4.8c-3.3,2-7.6,0.8-9.6-2.5l-21.1-35.8c-2-3.3-0.8-7.6,2.5-9.6l8.2-4.8
		c3.3-2,7.6-0.8,9.6,2.5l21.1,35.8C321.4,315.9,320.3,320.2,317,322.2z"/>
	<path id="XMLID_15_" class="st9" d="M210,177.7c0,0-17,9.5-19.5,21s-1,40.5,24.3,80s46,59,62.4,60c16.4,1,19.4-7,19.4-7l-24-42.5
		c0,0-17.6,11-36.1-22s-3.4-46-3.4-46L210,177.7z"/>
</g>
<g id="Layer_1" class="st0">
	
		<image style="display:inline;overflow:visible;" width="640" height="640" id="XMLID_1_" xlink:href="../../md_5a982744da73b.png"  transform="matrix(0.7616 0 0 0.7616 6.2992 6.2992)">
	</image>
</g>
</svg>
